<?xml version="1.0" encoding="UTF-8" standalone="no"?>
<svg width="1400" height="480" xmlns="http://www.w3.org/2000/svg">
<defs>
<style type="text/css">
text { font-family: 'Segoe UI', sans-serif; }
.titulo { font-size: 22px; font-weight: bold; fill: #2c3e50; }
.tempo { font-size: 12px; font-weight: bold; fill: #34495e; }
.tarefa { font-size: 13px; font-weight: bold; fill: #2c3e50; text-anchor: middle; }
.eixo { stroke: #2c3e50; stroke-width: 2; }
.grid { stroke: #bdc3c7; stroke-width: 1; stroke-dasharray: 3,3; opacity: 0.7; }
.ingresso { stroke: #e74c3c; stroke-width: 2.5; stroke-dasharray: 5,5; marker-end: url(#arrow); }
</style>
<marker id="arrow" markerWidth="10" markerHeight="7" refX="9" refY="3.5" orient="auto">
<polygon points="0 0, 10 3.5, 0 7" fill="#e74c3c" stroke="none"/>
</marker>
</defs>
<text x="700" y="30" class="titulo" text-anchor="middle">Grafico de Gantt - FIFO</text>
<line x1="80" y1="70" x2="1340" y2="70" class="eixo"/>
<line x1="80" y1="62" x2="80" y2="78" class="eixo"/>
<text x="80" y="92" class="tempo" text-anchor="middle">0</text>
<line x1="80" y1="70" x2="80" y2="90" class="grid"/>
<line x1="185" y1="62" x2="185" y2="78" class="eixo"/>
<text x="185" y="92" class="tempo" text-anchor="middle">1</text>
<line x1="185" y1="70" x2="185" y2="90" class="grid"/>
<line x1="290" y1="62" x2="290" y2="78" class="eixo"/>
<text x="290" y="92" class="tempo" text-anchor="middle">2</text>
<line x1="290" y1="70" x2="290" y2="90" class="grid"/>
<line x1="395" y1="62" x2="395" y2="78" class="eixo"/>
<text x="395" y="92" class="tempo" text-anchor="middle">3</text>
<line x1="395" y1="70" x2="395" y2="90" class="grid"/>
<line x1="500" y1="62" x2="500" y2="78" class="eixo"/>
<text x="500" y="92" class="tempo" text-anchor="middle">4</text>
<line x1="500" y1="70" x2="500" y2="90" class="grid"/>
<line x1="605" y1="62" x2="605" y2="78" class="eixo"/>
<text x="605" y="92" class="tempo" text-anchor="middle">5</text>
<line x1="605" y1="70" x2="605" y2="90" class="grid"/>
<line x1="710" y1="62" x2="710" y2="78" class="eixo"/>
<text x="710" y="92" class="tempo" text-anchor="middle">6</text>
<line x1="710" y1="70" x2="710" y2="90" class="grid"/>
<line x1="815" y1="62" x2="815" y2="78" class="eixo"/>
<text x="815" y="92" class="tempo" text-anchor="middle">7</text>
<line x1="815" y1="70" x2="815" y2="90" class="grid"/>
<line x1="920" y1="62" x2="920" y2="78" class="eixo"/>
<text x="920" y="92" class="tempo" text-anchor="middle">8</text>
<line x1="920" y1="70" x2="920" y2="90" class="grid"/>
<line x1="1025" y1="62" x2="1025" y2="78" class="eixo"/>
<text x="1025" y="92" class="tempo" text-anchor="middle">9</text>
<line x1="1025" y1="70" x2="1025" y2="90" class="grid"/>
<line x1="1130" y1="62" x2="1130" y2="78" class="eixo"/>
<text x="1130" y="92" class="tempo" text-anchor="middle">10</text>
<line x1="1130" y1="70" x2="1130" y2="90" class="grid"/>
<line x1="1235" y1="62" x2="1235" y2="78" class="eixo"/>
<text x="1235" y="92" class="tempo" text-anchor="middle">11</text>
<line x1="1235" y1="70" x2="1235" y2="90" class="grid"/>
<line x1="1340" y1="62" x2="1340" y2="78" class="eixo"/>
<text x="1340" y="92" class="tempo" text-anchor="middle">12</text>
<line x1="1340" y1="70" x2="1340" y2="90" class="grid"/>
<text x="10" y="127" font-size="14px" font-weight="bold" fill="#2c3e50">T1</text>
<rect x="80" y="105" width="525" height="35" rx="4" ry="4" fill="#FF6B6B" stroke="#2c3e50" stroke-width="1.5" opacity="0.95"/>
<text x="342" y="127" class="tarefa">5</text>
<line x1="80" y1="142" x2="80" y2="152" class="ingresso"/>
<text x="72" y="168" font-size="11px" fill="#e74c3c" text-anchor="end">0</text>
<text x="10" y="172" font-size="14px" font-weight="bold" fill="#2c3e50">T2</text>
<rect x="605" y="150" width="210" height="35" rx="4" ry="4" fill="#4ECDC4" stroke="#2c3e50" stroke-width="1.5" opacity="0.95"/>
<text x="710" y="172" class="tarefa">2</text>
<line x1="290" y1="187" x2="290" y2="197" class="ingresso"/>
<text x="282" y="213" font-size="11px" fill="#e74c3c" text-anchor="end">2</text>
<text x="10" y="217" font-size="14px" font-weight="bold" fill="#2c3e50">T3</text>
<rect x="815" y="195" width="420" height="35" rx="4" ry="4" fill="#FFEAA7" stroke="#2c3e50" stroke-width="1.5" opacity="0.95"/>
<text x="1025" y="217" class="tarefa">4</text>
<line x1="605" y1="232" x2="605" y2="242" class="ingresso"/>
<text x="597" y="258" font-size="11px" fill="#e74c3c" text-anchor="end">5</text>
<text x="10" y="262" font-size="14px" font-weight="bold" fill="#2c3e50">T4</text>
<rect x="1235" y="240" width="105" height="35" rx="4" ry="4" fill="#45B7D1" stroke="#2c3e50" stroke-width="1.5" opacity="0.95"/>
<text x="1287" y="262" class="tarefa">1</text>
<line x1="815" y1="277" x2="815" y2="287" class="ingresso"/>
<text x="807" y="303" font-size="11px" fill="#e74c3c" text-anchor="end">7</text>
<text x="1355" y="103" font-size="14px" font-weight="bold" fill="#2c3e50">Legenda:</text>
<text x="1355" y="120" font-size="12px" fill="#34495e">Fatias de execucao</text>
<text x="1355" y="137" font-size="12px" fill="#e74c3c">Tempo de ingresso</text>
</svg>
