<?xml version="1.0" encoding="UTF-8" standalone="no"?>
<svg width="1400" height="525" xmlns="http://www.w3.org/2000/svg">
<defs>
<style type="text/css">
text { font-family: 'Segoe UI', sans-serif; }
.titulo { font-size: 22px; font-weight: bold; fill: #2c3e50; }
.tempo { font-size: 12px; font-weight: bold; fill: #34495e; }
.tarefa { font-size: 13px; font-weight: bold; fill: #2c3e50; text-anchor: middle; }
.eixo { stroke: #2c3e50; stroke-width: 2; }
.grid { stroke: #bdc3c7; stroke-width: 1; stroke-dasharray: 3,3; opacity: 0.7; }
.ingresso { stroke: #e74c3c; stroke-width: 2.5; stroke-dasharray: 5,5; marker-end: url(#arrow); }
</style>
<marker id="arrow" markerWidth="10" markerHeight="7" refX="9" refY="3.5" orient="auto">
<polygon points="0 0, 10 3.5, 0 7" fill="#e74c3c" stroke="none"/>
</marker>
</defs>
<text x="700" y="30" class="titulo" text-anchor="middle">Grafico de Gantt - FIFO</text>
<line x1="80" y1="70" x2="1340" y2="70" class="eixo"/>
<line x1="80" y1="62" x2="80" y2="78" class="eixo"/>
<text x="80" y="92" class="tempo" text-anchor="middle">0</text>
<line x1="80" y1="70" x2="80" y2="90" class="grid"/>
<line x1="164" y1="62" x2="164" y2="78" class="eixo"/>
<text x="164" y="92" class="tempo" text-anchor="middle">1</text>
<line x1="164" y1="70" x2="164" y2="90" class="grid"/>
<line x1="248" y1="62" x2="248" y2="78" class="eixo"/>
<text x="248" y="92" class="tempo" text-anchor="middle">2</text>
<line x1="248" y1="70" x2="248" y2="90" class="grid"/>
<line x1="332" y1="62" x2="332" y2="78" class="eixo"/>
<text x="332" y="92" class="tempo" text-anchor="middle">3</text>
<line x1="332" y1="70" x2="332" y2="90" class="grid"/>
<line x1="416" y1="62" x2="416" y2="78" class="eixo"/>
<text x="416" y="92" class="tempo" text-anchor="middle">4</text>
<line x1="416" y1="70" x2="416" y2="90" class="grid"/>
<line x1="500" y1="62" x2="500" y2="78" class="eixo"/>
<text x="500" y="92" class="tempo" text-anchor="middle">5</text>
<line x1="500" y1="70" x2="500" y2="90" class="grid"/>
<line x1="584" y1="62" x2="584" y2="78" class="eixo"/>
<text x="584" y="92" class="tempo" text-anchor="middle">6</text>
<line x1="584" y1="70" x2="584" y2="90" class="grid"/>
<line x1="668" y1="62" x2="668" y2="78" class="eixo"/>
<text x="668" y="92" class="tempo" text-anchor="middle">7</text>
<line x1="668" y1="70" x2="668" y2="90" class="grid"/>
<line x1="752" y1="62" x2="752" y2="78" class="eixo"/>
<text x="752" y="92" class="tempo" text-anchor="middle">8</text>
<line x1="752" y1="70" x2="752" y2="90" class="grid"/>
<line x1="836" y1="62" x2="836" y2="78" class="eixo"/>
<text x="836" y="92" class="tempo" text-anchor="middle">9</text>
<line x1="836" y1="70" x2="836" y2="90" class="grid"/>
<line x1="920" y1="62" x2="920" y2="78" class="eixo"/>
<text x="920" y="92" class="tempo" text-anchor="middle">10</text>
<line x1="920" y1="70" x2="920" y2="90" class="grid"/>
<line x1="1004" y1="62" x2="1004" y2="78" class="eixo"/>
<text x="1004" y="92" class="tempo" text-anchor="middle">11</text>
<line x1="1004" y1="70" x2="1004" y2="90" class="grid"/>
<line x1="1088" y1="62" x2="1088" y2="78" class="eixo"/>
<text x="1088" y="92" class="tempo" text-anchor="middle">12</text>
<line x1="1088" y1="70" x2="1088" y2="90" class="grid"/>
<line x1="1172" y1="62" x2="1172" y2="78" class="eixo"/>
<text x="1172" y="92" class="tempo" text-anchor="middle">13</text>
<line x1="1172" y1="70" x2="1172" y2="90" class="grid"/>
<line x1="1256" y1="62" x2="1256" y2="78" class="eixo"/>
<text x="1256" y="92" class="tempo" text-anchor="middle">14</text>
<line x1="1256" y1="70" x2="1256" y2="90" class="grid"/>
<line x1="1340" y1="62" x2="1340" y2="78" class="eixo"/>
<text x="1340" y="92" class="tempo" text-anchor="middle">15</text>
<line x1="1340" y1="70" x2="1340" y2="90" class="grid"/>
<text x="10" y="127" font-size="14px" font-weight="bold" fill="#2c3e50">T1</text>
<rect x="80" y="105" width="420" height="35" rx="4" ry="4" fill="#FF6B6B" stroke="#2c3e50" stroke-width="1.5" opacity="0.95"/>
<text x="290" y="127" class="tarefa">5</text>
<line x1="80" y1="125" x2="80" y2="135" class="ingresso"/>
<text x="10" y="172" font-size="14px" font-weight="bold" fill="#2c3e50">T2</text>
<rect x="752" y="150" width="168" height="35" rx="4" ry="4" fill="#4ECDC4" stroke="#2c3e50" stroke-width="1.5" opacity="0.95"/>
<text x="836" y="172" class="tarefa">2</text>
<line x1="248" y1="170" x2="248" y2="180" class="ingresso"/>
<text x="10" y="217" font-size="14px" font-weight="bold" fill="#2c3e50">T3</text>
<rect x="920" y="195" width="336" height="35" rx="4" ry="4" fill="#FFEAA7" stroke="#2c3e50" stroke-width="1.5" opacity="0.95"/>
<text x="1088" y="217" class="tarefa">4</text>
<line x1="500" y1="215" x2="500" y2="225" class="ingresso"/>
<text x="10" y="262" font-size="14px" font-weight="bold" fill="#2c3e50">T4</text>
<rect x="1256" y="240" width="84" height="35" rx="4" ry="4" fill="#45B7D1" stroke="#2c3e50" stroke-width="1.5" opacity="0.95"/>
<text x="1298" y="262" class="tarefa">1</text>
<line x1="668" y1="260" x2="668" y2="270" class="ingresso"/>
<text x="10" y="307" font-size="14px" font-weight="bold" fill="#2c3e50">T5</text>
<rect x="500" y="285" width="252" height="35" rx="4" ry="4" fill="#BB8FCE" stroke="#2c3e50" stroke-width="1.5" opacity="0.95"/>
<text x="626" y="307" class="tarefa">3</text>
<line x1="164" y1="305" x2="164" y2="315" class="ingresso"/>
</svg>
