<?xml version="1.0" encoding="UTF-8" standalone="no"?>
<svg width="1400" height="570" xmlns="http://www.w3.org/2000/svg">
<defs>
<style type="text/css">
text { font-family: 'Segoe UI', sans-serif; }
.titulo { font-size: 22px; font-weight: bold; fill: #2c3e50; }
.tempo { font-size: 12px; font-weight: bold; fill: #34495e; }
.tarefa { font-size: 13px; font-weight: bold; fill: #2c3e50; text-anchor: middle; }
.eixo { stroke: #2c3e50; stroke-width: 2; }
.grid { stroke: #bdc3c7; stroke-width: 1; stroke-dasharray: 3,3; opacity: 0.7; }
.ingresso { stroke: #e74c3c; stroke-width: 2.5; stroke-dasharray: 5,5; marker-end: url(#arrow); }
</style>
<marker id="arrow" markerWidth="10" markerHeight="7" refX="9" refY="3.5" orient="auto">
<polygon points="0 0, 10 3.5, 0 7" fill="#e74c3c" stroke="none"/>
</marker>
</defs>
<text x="700" y="30" class="titulo" text-anchor="middle">Grafico de Gantt - PRIOPEnv</text>
<line x1="80" y1="70" x2="1340" y2="70" class="eixo"/>
<line x1="80" y1="62" x2="80" y2="78" class="eixo"/>
<text x="80" y="92" class="tempo" text-anchor="middle">0</text>
<line x1="80" y1="70" x2="80" y2="90" class="grid"/>
<line x1="171" y1="62" x2="171" y2="78" class="eixo"/>
<text x="171" y="92" class="tempo" text-anchor="middle">4</text>
<line x1="171" y1="70" x2="171" y2="90" class="grid"/>
<line x1="263" y1="62" x2="263" y2="78" class="eixo"/>
<text x="263" y="92" class="tempo" text-anchor="middle">8</text>
<line x1="263" y1="70" x2="263" y2="90" class="grid"/>
<line x1="354" y1="62" x2="354" y2="78" class="eixo"/>
<text x="354" y="92" class="tempo" text-anchor="middle">12</text>
<line x1="354" y1="70" x2="354" y2="90" class="grid"/>
<line x1="446" y1="62" x2="446" y2="78" class="eixo"/>
<text x="446" y="92" class="tempo" text-anchor="middle">16</text>
<line x1="446" y1="70" x2="446" y2="90" class="grid"/>
<line x1="538" y1="62" x2="538" y2="78" class="eixo"/>
<text x="538" y="92" class="tempo" text-anchor="middle">20</text>
<line x1="538" y1="70" x2="538" y2="90" class="grid"/>
<line x1="629" y1="62" x2="629" y2="78" class="eixo"/>
<text x="629" y="92" class="tempo" text-anchor="middle">24</text>
<line x1="629" y1="70" x2="629" y2="90" class="grid"/>
<line x1="721" y1="62" x2="721" y2="78" class="eixo"/>
<text x="721" y="92" class="tempo" text-anchor="middle">28</text>
<line x1="721" y1="70" x2="721" y2="90" class="grid"/>
<line x1="813" y1="62" x2="813" y2="78" class="eixo"/>
<text x="813" y="92" class="tempo" text-anchor="middle">32</text>
<line x1="813" y1="70" x2="813" y2="90" class="grid"/>
<line x1="904" y1="62" x2="904" y2="78" class="eixo"/>
<text x="904" y="92" class="tempo" text-anchor="middle">36</text>
<line x1="904" y1="70" x2="904" y2="90" class="grid"/>
<line x1="996" y1="62" x2="996" y2="78" class="eixo"/>
<text x="996" y="92" class="tempo" text-anchor="middle">40</text>
<line x1="996" y1="70" x2="996" y2="90" class="grid"/>
<line x1="1088" y1="62" x2="1088" y2="78" class="eixo"/>
<text x="1088" y="92" class="tempo" text-anchor="middle">44</text>
<line x1="1088" y1="70" x2="1088" y2="90" class="grid"/>
<line x1="1179" y1="62" x2="1179" y2="78" class="eixo"/>
<text x="1179" y="92" class="tempo" text-anchor="middle">48</text>
<line x1="1179" y1="70" x2="1179" y2="90" class="grid"/>
<line x1="1271" y1="62" x2="1271" y2="78" class="eixo"/>
<text x="1271" y="92" class="tempo" text-anchor="middle">52</text>
<line x1="1271" y1="70" x2="1271" y2="90" class="grid"/>
<text x="10" y="127" font-size="14px" font-weight="bold" fill="#2c3e50">T1</text>
<rect x="80" y="105" width="916" height="35" rx="4" ry="4" fill="#E74C3C" stroke="#2c3e50" stroke-width="1.5" opacity="0.95"/>
<text x="538" y="127" class="tarefa">40</text>
<line x1="80" y1="125" x2="80" y2="135" class="ingresso"/>
<text x="10" y="172" font-size="14px" font-weight="bold" fill="#2c3e50">T2</text>
<rect x="996" y="150" width="68" height="35" rx="4" ry="4" fill="#27AE60" stroke="#2c3e50" stroke-width="1.5" opacity="0.95"/>
<text x="1030" y="172" class="tarefa">3</text>
<line x1="125" y1="170" x2="125" y2="180" class="ingresso"/>
<text x="10" y="217" font-size="14px" font-weight="bold" fill="#2c3e50">T3</text>
<rect x="1065" y="195" width="68" height="35" rx="4" ry="4" fill="#F1C40F" stroke="#2c3e50" stroke-width="1.5" opacity="0.95"/>
<text x="1099" y="217" class="tarefa">3</text>
<line x1="171" y1="215" x2="171" y2="225" class="ingresso"/>
<text x="10" y="262" font-size="14px" font-weight="bold" fill="#2c3e50">T4</text>
<rect x="1133" y="240" width="68" height="35" rx="4" ry="4" fill="#3498DB" stroke="#2c3e50" stroke-width="1.5" opacity="0.95"/>
<text x="1167" y="262" class="tarefa">3</text>
<line x1="217" y1="260" x2="217" y2="270" class="ingresso"/>
<text x="10" y="307" font-size="14px" font-weight="bold" fill="#2c3e50">T5</text>
<rect x="1202" y="285" width="68" height="35" rx="4" ry="4" fill="#9B59B6" stroke="#2c3e50" stroke-width="1.5" opacity="0.95"/>
<text x="1236" y="307" class="tarefa">3</text>
<line x1="263" y1="305" x2="263" y2="315" class="ingresso"/>
<text x="10" y="352" font-size="14px" font-weight="bold" fill="#2c3e50">T6</text>
<rect x="1271" y="330" width="68" height="35" rx="4" ry="4" fill="#8E44AD" stroke="#2c3e50" stroke-width="1.5" opacity="0.95"/>
<text x="1305" y="352" class="tarefa">3</text>
<line x1="309" y1="350" x2="309" y2="360" class="ingresso"/>
</svg>
