<svg width="1090" height="330" xmlns="http://www.w3.org/2000/svg">
<rect width="100%" height="100%" fill="white"/>
<text x="545" y="30" font-size="20" text-anchor="middle" font-family="Arial" font-weight="bold">PRIOPEnv</text>
<line x1="80" y1="70" x2="1040" y2="70" stroke="black" stroke-width="2"/>
<line x1="80" y1="67" x2="80" y2="73" stroke="black" stroke-width="1"/>
<text x="80" y="55" font-size="12" text-anchor="middle" font-family="Arial">0</text>
<line x1="80" y1="70" x2="80" y2="280" stroke="#ccc" stroke-width="1" stroke-dasharray="2,2"/>
<line x1="120" y1="67" x2="120" y2="73" stroke="black" stroke-width="1"/>
<line x1="160" y1="67" x2="160" y2="73" stroke="black" stroke-width="1"/>
<line x1="200" y1="67" x2="200" y2="73" stroke="black" stroke-width="1"/>
<line x1="240" y1="67" x2="240" y2="73" stroke="black" stroke-width="1"/>
<line x1="280" y1="67" x2="280" y2="73" stroke="black" stroke-width="1"/>
<text x="280" y="55" font-size="12" text-anchor="middle" font-family="Arial">5</text>
<line x1="280" y1="70" x2="280" y2="280" stroke="#ccc" stroke-width="1" stroke-dasharray="2,2"/>
<line x1="320" y1="67" x2="320" y2="73" stroke="black" stroke-width="1"/>
<line x1="360" y1="67" x2="360" y2="73" stroke="black" stroke-width="1"/>
<line x1="400" y1="67" x2="400" y2="73" stroke="black" stroke-width="1"/>
<line x1="440" y1="67" x2="440" y2="73" stroke="black" stroke-width="1"/>
<line x1="480" y1="67" x2="480" y2="73" stroke="black" stroke-width="1"/>
<text x="480" y="55" font-size="12" text-anchor="middle" font-family="Arial">10</text>
<line x1="480" y1="70" x2="480" y2="280" stroke="#ccc" stroke-width="1" stroke-dasharray="2,2"/>
<line x1="520" y1="67" x2="520" y2="73" stroke="black" stroke-width="1"/>
<line x1="560" y1="67" x2="560" y2="73" stroke="black" stroke-width="1"/>
<line x1="600" y1="67" x2="600" y2="73" stroke="black" stroke-width="1"/>
<line x1="640" y1="67" x2="640" y2="73" stroke="black" stroke-width="1"/>
<line x1="680" y1="67" x2="680" y2="73" stroke="black" stroke-width="1"/>
<text x="680" y="55" font-size="12" text-anchor="middle" font-family="Arial">15</text>
<line x1="680" y1="70" x2="680" y2="280" stroke="#ccc" stroke-width="1" stroke-dasharray="2,2"/>
<line x1="720" y1="67" x2="720" y2="73" stroke="black" stroke-width="1"/>
<line x1="760" y1="67" x2="760" y2="73" stroke="black" stroke-width="1"/>
<line x1="800" y1="67" x2="800" y2="73" stroke="black" stroke-width="1"/>
<line x1="840" y1="67" x2="840" y2="73" stroke="black" stroke-width="1"/>
<line x1="880" y1="67" x2="880" y2="73" stroke="black" stroke-width="1"/>
<text x="880" y="55" font-size="12" text-anchor="middle" font-family="Arial">20</text>
<line x1="880" y1="70" x2="880" y2="280" stroke="#ccc" stroke-width="1" stroke-dasharray="2,2"/>
<line x1="920" y1="67" x2="920" y2="73" stroke="black" stroke-width="1"/>
<line x1="960" y1="67" x2="960" y2="73" stroke="black" stroke-width="1"/>
<line x1="1000" y1="67" x2="1000" y2="73" stroke="black" stroke-width="1"/>
<line x1="1040" y1="67" x2="1040" y2="73" stroke="black" stroke-width="1"/>
<text x="1040" y="55" font-size="12" text-anchor="middle" font-family="Arial">24</text>
<line x1="1040" y1="70" x2="1040" y2="280" stroke="#ccc" stroke-width="1" stroke-dasharray="2,2"/>
<text x="70" y="100" font-size="14" text-anchor="end" font-family="Arial">T1</text>
<line x1="80" y1="80" x2="80" y2="110" stroke="#FF0000" stroke-width="2" stroke-dasharray="3,3"/>
<polygon points="80,75 75,80 85,80" fill="#FF0000"/>
<rect x="560" y="80" width="120" height="30" fill="#FF0000" rx="2" ry="2" stroke="#333" stroke-width="1"/>
<rect x="960" y="80" width="80" height="30" fill="#FF0000" rx="2" ry="2" stroke="#333" stroke-width="1"/>
<text x="70" y="140" font-size="14" text-anchor="end" font-family="Arial">T2</text>
<line x1="80" y1="120" x2="80" y2="150" stroke="#00FF00" stroke-width="2" stroke-dasharray="3,3"/>
<polygon points="80,115 75,120 85,120" fill="#00FF00"/>
<rect x="80" y="120" width="120" height="30" fill="#00FF00" rx="2" ry="2" stroke="#333" stroke-width="1"/>
<rect x="800" y="120" width="40" height="30" fill="#00FF00" rx="2" ry="2" stroke="#333" stroke-width="1"/>
<text x="70" y="180" font-size="14" text-anchor="end" font-family="Arial">T3</text>
<line x1="200" y1="160" x2="200" y2="190" stroke="#0000FF" stroke-width="2" stroke-dasharray="3,3"/>
<polygon points="200,155 195,160 205,160" fill="#0000FF"/>
<rect x="200" y="160" width="120" height="30" fill="#0000FF" rx="2" ry="2" stroke="#333" stroke-width="1"/>
<rect x="840" y="160" width="80" height="30" fill="#0000FF" rx="2" ry="2" stroke="#333" stroke-width="1"/>
<text x="70" y="220" font-size="14" text-anchor="end" font-family="Arial">T4</text>
<line x1="280" y1="200" x2="280" y2="230" stroke="#FFFF00" stroke-width="2" stroke-dasharray="3,3"/>
<polygon points="280,195 275,200 285,200" fill="#FFFF00"/>
<rect x="320" y="200" width="240" height="30" fill="#FFFF00" rx="2" ry="2" stroke="#333" stroke-width="1"/>
<text x="70" y="260" font-size="14" text-anchor="end" font-family="Arial">T5</text>
<line x1="360" y1="240" x2="360" y2="270" stroke="#FF00FF" stroke-width="2" stroke-dasharray="3,3"/>
<polygon points="360,235 355,240 365,240" fill="#FF00FF"/>
<rect x="680" y="240" width="120" height="30" fill="#FF00FF" rx="2" ry="2" stroke="#333" stroke-width="1"/>
<rect x="920" y="240" width="40" height="30" fill="#FF00FF" rx="2" ry="2" stroke="#333" stroke-width="1"/>
</svg>