<?xml version="1.0" encoding="UTF-8" standalone="no"?>
<svg width="1400" height="390" xmlns="http://www.w3.org/2000/svg">
<defs>
<style type="text/css">
text { font-family: 'Segoe UI', sans-serif; }
.titulo { font-size: 22px; font-weight: bold; fill: #2c3e50; }
.tempo { font-size: 12px; font-weight: bold; fill: #34495e; }
.tarefa { font-size: 13px; font-weight: bold; fill: #2c3e50; text-anchor: middle; }
.eixo { stroke: #2c3e50; stroke-width: 2; }
.grid { stroke: #bdc3c7; stroke-width: 1; stroke-dasharray: 3,3; opacity: 0.7; }
.ingresso { stroke: #e74c3c; stroke-width: 2.5; stroke-dasharray: 5,5; marker-end: url(#arrow); }
</style>
<marker id="arrow" markerWidth="10" markerHeight="7" refX="9" refY="3.5" orient="auto">
<polygon points="0 0, 10 3.5, 0 7" fill="#e74c3c" stroke="none"/>
</marker>
</defs>
<text x="700" y="30" class="titulo" text-anchor="middle">Grafico de Gantt - PRIOP</text>
<line x1="80" y1="70" x2="1340" y2="70" class="eixo"/>
<line x1="80" y1="62" x2="80" y2="78" class="eixo"/>
<text x="80" y="92" class="tempo" text-anchor="middle">0</text>
<line x1="80" y1="70" x2="80" y2="90" class="grid"/>
<line x1="260" y1="62" x2="260" y2="78" class="eixo"/>
<text x="260" y="92" class="tempo" text-anchor="middle">1</text>
<line x1="260" y1="70" x2="260" y2="90" class="grid"/>
<line x1="440" y1="62" x2="440" y2="78" class="eixo"/>
<text x="440" y="92" class="tempo" text-anchor="middle">2</text>
<line x1="440" y1="70" x2="440" y2="90" class="grid"/>
<line x1="620" y1="62" x2="620" y2="78" class="eixo"/>
<text x="620" y="92" class="tempo" text-anchor="middle">3</text>
<line x1="620" y1="70" x2="620" y2="90" class="grid"/>
<line x1="800" y1="62" x2="800" y2="78" class="eixo"/>
<text x="800" y="92" class="tempo" text-anchor="middle">4</text>
<line x1="800" y1="70" x2="800" y2="90" class="grid"/>
<line x1="980" y1="62" x2="980" y2="78" class="eixo"/>
<text x="980" y="92" class="tempo" text-anchor="middle">5</text>
<line x1="980" y1="70" x2="980" y2="90" class="grid"/>
<line x1="1160" y1="62" x2="1160" y2="78" class="eixo"/>
<text x="1160" y="92" class="tempo" text-anchor="middle">6</text>
<line x1="1160" y1="70" x2="1160" y2="90" class="grid"/>
<line x1="1340" y1="62" x2="1340" y2="78" class="eixo"/>
<text x="1340" y="92" class="tempo" text-anchor="middle">7</text>
<line x1="1340" y1="70" x2="1340" y2="90" class="grid"/>
<text x="10" y="127" font-size="14px" font-weight="bold" fill="#2c3e50">T1</text>
<rect x="80" y="105" width="900" height="35" rx="4" ry="4" fill="#FF6B6B" stroke="#2c3e50" stroke-width="1.5" opacity="0.95"/>
<text x="530" y="127" class="tarefa">5</text>
<line x1="80" y1="125" x2="80" y2="135" class="ingresso"/>
<text x="10" y="172" font-size="14px" font-weight="bold" fill="#2c3e50">T2</text>
<rect x="980" y="150" width="360" height="35" rx="4" ry="4" fill="#4ECDC4" stroke="#2c3e50" stroke-width="1.5" opacity="0.95"/>
<text x="1160" y="172" class="tarefa">2</text>
<line x1="440" y1="170" x2="440" y2="180" class="ingresso"/>
</svg>
