<svg width="850" height="210" xmlns="http://www.w3.org/2000/svg">
<rect width="100%" height="100%" fill="white"/>
<text x="425" y="30" font-size="20" text-anchor="middle" font-family="Arial" font-weight="bold">SRTF</text>
<line x1="80" y1="70" x2="800" y2="70" stroke="black" stroke-width="2"/>
<line x1="80" y1="67" x2="80" y2="73" stroke="black" stroke-width="1"/>
<text x="80" y="55" font-size="12" text-anchor="middle" font-family="Arial">0</text>
<line x1="80" y1="70" x2="80" y2="160" stroke="#ccc" stroke-width="1" stroke-dasharray="2,2"/>
<line x1="120" y1="67" x2="120" y2="73" stroke="black" stroke-width="1"/>
<line x1="160" y1="67" x2="160" y2="73" stroke="black" stroke-width="1"/>
<line x1="200" y1="67" x2="200" y2="73" stroke="black" stroke-width="1"/>
<line x1="240" y1="67" x2="240" y2="73" stroke="black" stroke-width="1"/>
<line x1="280" y1="67" x2="280" y2="73" stroke="black" stroke-width="1"/>
<text x="280" y="55" font-size="12" text-anchor="middle" font-family="Arial">5</text>
<line x1="280" y1="70" x2="280" y2="160" stroke="#ccc" stroke-width="1" stroke-dasharray="2,2"/>
<line x1="320" y1="67" x2="320" y2="73" stroke="black" stroke-width="1"/>
<line x1="360" y1="67" x2="360" y2="73" stroke="black" stroke-width="1"/>
<line x1="400" y1="67" x2="400" y2="73" stroke="black" stroke-width="1"/>
<line x1="440" y1="67" x2="440" y2="73" stroke="black" stroke-width="1"/>
<line x1="480" y1="67" x2="480" y2="73" stroke="black" stroke-width="1"/>
<text x="480" y="55" font-size="12" text-anchor="middle" font-family="Arial">10</text>
<line x1="480" y1="70" x2="480" y2="160" stroke="#ccc" stroke-width="1" stroke-dasharray="2,2"/>
<line x1="520" y1="67" x2="520" y2="73" stroke="black" stroke-width="1"/>
<line x1="560" y1="67" x2="560" y2="73" stroke="black" stroke-width="1"/>
<line x1="600" y1="67" x2="600" y2="73" stroke="black" stroke-width="1"/>
<line x1="640" y1="67" x2="640" y2="73" stroke="black" stroke-width="1"/>
<line x1="680" y1="67" x2="680" y2="73" stroke="black" stroke-width="1"/>
<text x="680" y="55" font-size="12" text-anchor="middle" font-family="Arial">15</text>
<line x1="680" y1="70" x2="680" y2="160" stroke="#ccc" stroke-width="1" stroke-dasharray="2,2"/>
<line x1="720" y1="67" x2="720" y2="73" stroke="black" stroke-width="1"/>
<line x1="760" y1="67" x2="760" y2="73" stroke="black" stroke-width="1"/>
<line x1="800" y1="67" x2="800" y2="73" stroke="black" stroke-width="1"/>
<text x="800" y="55" font-size="12" text-anchor="middle" font-family="Arial">18</text>
<line x1="800" y1="70" x2="800" y2="160" stroke="#ccc" stroke-width="1" stroke-dasharray="2,2"/>
<text x="70" y="100" font-size="14" text-anchor="end" font-family="Arial">T1</text>
<line x1="80" y1="80" x2="80" y2="110" stroke="#E74C3C" stroke-width="2" stroke-dasharray="3,3"/>
<polygon points="80,75 75,80 85,80" fill="#E74C3C"/>
<rect x="80" y="80" width="320" height="30" fill="#E74C3C" rx="2" ry="2" stroke="#333" stroke-width="1"/>
<text x="70" y="140" font-size="14" text-anchor="end" font-family="Arial">T2</text>
<line x1="160" y1="120" x2="160" y2="150" stroke="#27AE60" stroke-width="2" stroke-dasharray="3,3"/>
<polygon points="160,115 155,120 165,120" fill="#27AE60"/>
<rect x="400" y="120" width="400" height="30" fill="#27AE60" rx="2" ry="2" stroke="#333" stroke-width="1"/>
</svg>